<svg width="42" height="29" viewBox="0 0 42 29" fill="none" xmlns="http://www.w3.org/2000/svg">
<rect x="1.29907" y="0.5" width="39.7283" height="28" rx="2" fill="#1F72CD" stroke="#D9D9D9"/>
<path fill-rule="evenodd" clip-rule="evenodd" d="M8.1377 10.1865L4.34058 19.1686H8.88627L9.4498 17.7365H10.7379L11.3014 19.1686H16.305V18.0756L16.7508 19.1686H19.339L19.7849 18.0525V19.1686H30.1909L31.4562 17.7737L32.641 19.1686L37.9857 19.1802L34.1766 14.7026L37.9857 10.1865H32.7239L31.4922 11.5557L30.3447 10.1865H19.0243L18.0522 12.5049L17.0574 10.1865H12.5212V11.2424L12.0165 10.1865H8.1377ZM23.6769 11.462H29.6525L31.4802 13.5723L33.3667 11.462H35.1944L32.4175 14.7014L35.1944 17.9034H33.2838L31.4562 15.7686L29.56 17.9034H23.6769V11.462ZM25.1526 13.9731V12.7965V12.7954H28.8812L30.5082 14.677L28.8091 16.5689H25.1526V15.2844H28.4126V13.9731H25.1526ZM9.01722 11.462H11.233L13.7516 17.5528V11.462H16.1789L18.1243 15.8291L19.9171 11.462H22.3323V17.9072H20.8627L20.8507 12.8568L18.7082 17.9072H17.3936L15.2391 12.8568V17.9072H12.2159L11.6427 16.4623H8.5462L7.97423 17.906H6.35441L9.01722 11.462ZM9.07495 15.1265L10.0951 12.5525L11.1141 15.1265H9.07495Z" fill="white"/>
</svg>
