<svg width="41" height="29" viewBox="0 0 41 29" fill="none" xmlns="http://www.w3.org/2000/svg">
<rect x="0.562988" y="0.5" width="39.7283" height="28" rx="2" fill="white" stroke="#D9D9D9"/>
<path d="M16.6199 27.2477L39.05 20.2998V25.6977C39.05 26.5538 38.356 27.2477 37.5 27.2477H16.6199Z" fill="#FD6020"/>
<path fill-rule="evenodd" clip-rule="evenodd" d="M34.7631 11.0089C35.9971 11.0089 36.6758 11.5932 36.6758 12.6969C36.7375 13.5408 36.1822 14.2549 35.4418 14.3848L37.1077 16.7868H35.812L34.3929 14.4497H34.2695V16.7868H33.2206V11.0089H34.7631ZM34.2695 13.6707H34.578C35.2567 13.6707 35.5652 13.3461 35.5652 12.7618C35.5652 12.2424 35.2567 11.9178 34.578 11.9178H34.2695V13.6707ZM29.5803 16.7868H32.5419V15.813H30.6292V14.2549H32.4802V13.2811H30.6292V11.9827H32.5419V11.0089H29.5803V16.7868ZM26.4952 14.9041L25.0761 11.0089H23.9655L26.2484 16.9167H26.8037L29.0866 11.0089H27.976L26.4952 14.9041ZM13.9701 13.9303C13.9701 15.5533 15.2041 16.9167 16.7466 16.9167C17.2402 16.9167 17.6721 16.7868 18.104 16.5921V15.2937C17.7955 15.6832 17.3636 15.9429 16.87 15.9429C15.8828 15.9429 15.0807 15.1638 15.0807 14.1251V13.9953C15.019 12.9565 15.8211 12.0477 16.8083 11.9827C17.3019 11.9827 17.7955 12.2424 18.104 12.6319V11.3335C17.7338 11.0739 17.2402 11.0089 16.8083 11.0089C15.2041 10.8791 13.9701 12.2424 13.9701 13.9303ZM12.0574 13.2162C11.4404 12.9565 11.2553 12.8267 11.2553 12.5021C11.317 12.1126 11.6255 11.788 11.9957 11.8529C12.3042 11.8529 12.6127 12.0477 12.8595 12.3073L13.4148 11.5283C12.9829 11.1388 12.4276 10.8791 11.8723 10.8791C11.0085 10.8142 10.2681 11.5283 10.2064 12.4372V12.5021C10.2064 13.2811 10.5149 13.7356 11.5021 14.0602C11.7489 14.1251 11.9957 14.2549 12.2425 14.3848C12.4276 14.5146 12.551 14.7094 12.551 14.9691C12.551 15.4235 12.1808 15.813 11.8106 15.813H11.7489C11.2553 15.813 10.8234 15.4884 10.6383 15.034L9.95961 15.7481C10.3298 16.4622 11.0702 16.8517 11.8106 16.8517C12.7978 16.9167 13.5999 16.1376 13.6616 15.0989V14.9041C13.5999 14.1251 13.2914 13.7356 12.0574 13.2162ZM8.47881 16.7868H9.52771V11.0089H8.47881V16.7868ZM3.60449 11.009H5.14699H5.4555C6.9363 11.0739 8.1086 12.3723 8.0469 13.9304C8.0469 14.7743 7.6767 15.5534 7.0597 16.1376C6.5044 16.5921 5.8257 16.8518 5.14699 16.7868H3.60449V11.009ZM4.9619 15.813C5.4555 15.8779 6.01081 15.6832 6.38101 15.3586C6.75121 14.9691 6.93631 14.4497 6.93631 13.8654C6.93631 13.3461 6.75121 12.8267 6.38101 12.4372C6.01081 12.1126 5.4555 11.9178 4.9619 11.9827H4.6534V15.813H4.9619Z" fill="black"/>
<path fill-rule="evenodd" clip-rule="evenodd" d="M21.2508 10.875C19.7083 10.875 18.4126 12.1734 18.4126 13.8613C18.4126 15.4843 19.6466 16.8476 21.2508 16.9126C22.855 16.9775 24.089 15.6142 24.1507 13.9262C24.089 12.2383 22.855 10.875 21.2508 10.875V10.875Z" fill="#FD6020"/>
</svg>
