<svg width="50" height="50" viewBox="0 0 50 50" fill="none" xmlns="http://www.w3.org/2000/svg">
<path d="M6.13281 14.6094C6.64062 14.6094 7.07031 14.1797 7.07031 13.6719V8.39844L18.6719 20C18.8672 20.1953 19.1016 20.2734 19.3359 20.2734C19.5703 20.2734 19.8047 20.1953 20 20C20.3516 19.6484 20.3516 19.0234 20 18.6719L8.39844 7.07031H13.6719C14.1797 7.07031 14.6094 6.64062 14.6094 6.13281C14.6094 5.625 14.1797 5.19531 13.6719 5.19531H6.13281C6.01562 5.19531 5.89844 5.23437 5.78125 5.27344C5.54688 5.35156 5.35156 5.54688 5.27344 5.78125C5.23437 5.89844 5.19531 6.01562 5.19531 6.13281V13.6719C5.19531 14.2188 5.625 14.6094 6.13281 14.6094Z" fill="white"/>
<path d="M44.8047 6.13281C44.8047 6.01562 44.7656 5.89844 44.7266 5.78125C44.6484 5.54688 44.4531 5.35156 44.2187 5.27344C44.1016 5.23437 43.9844 5.19531 43.8672 5.19531H36.3281C35.8203 5.19531 35.3906 5.625 35.3906 6.13281C35.3906 6.64062 35.8203 7.07031 36.3281 7.07031H41.6016L30 18.6719C29.6484 19.0234 29.6484 19.6484 30 20C30.1953 20.1953 30.4297 20.2734 30.6641 20.2734C30.8984 20.2734 31.1328 20.1953 31.3281 20L42.9297 8.39844V13.6719C42.9297 14.1797 43.3594 14.6094 43.8672 14.6094C44.375 14.6094 44.8047 14.1797 44.8047 13.6719V6.13281Z" fill="white"/>
<path d="M44.2187 44.7266C44.4531 44.6484 44.6484 44.4531 44.7266 44.2187C44.7656 44.1016 44.8047 43.9844 44.8047 43.8672V36.3281C44.8047 35.8203 44.375 35.3906 43.8672 35.3906C43.3594 35.3906 42.9297 35.8203 42.9297 36.3281V41.6016L31.3281 30C30.9766 29.6484 30.3516 29.6484 30 30C29.6484 30.3516 29.6484 30.9766 30 31.3281L41.6016 42.9297H36.3281C35.8203 42.9297 35.3906 43.3594 35.3906 43.8672C35.3906 44.375 35.8203 44.8047 36.3281 44.8047H43.8672C43.9844 44.8047 44.1016 44.7656 44.2187 44.7266Z" fill="white"/>
<path d="M5.78125 44.7266C5.89844 44.7656 6.01562 44.8047 6.13281 44.8047H13.6719C14.1797 44.8047 14.6094 44.375 14.6094 43.8672C14.6094 43.3594 14.1797 42.9297 13.6719 42.9297H8.39844L20 31.3281C20.3516 30.9766 20.3516 30.3516 20 30C19.6484 29.6484 19.0234 29.6484 18.6719 30L7.07031 41.6016V36.3281C7.07031 35.8203 6.64062 35.3906 6.13281 35.3906C5.625 35.3906 5.19531 35.8203 5.19531 36.3281V43.8672C5.19531 43.9844 5.23437 44.1016 5.27344 44.2187C5.35156 44.4531 5.54688 44.6484 5.78125 44.7266Z" fill="white"/>
</svg>
