<svg width="64" height="64" viewBox="0 0 64 64" fill="none" xmlns="http://www.w3.org/2000/svg">
<path d="M21.9021 38.412C21.2089 38.997 20.7423 39.387 19.7159 39.387C18.6761 39.387 18.2229 38.997 17.5297 38.412C16.6765 37.684 15.6234 36.787 13.5838 36.787C11.5576 36.787 10.4911 37.684 9.65132 38.412C8.95813 38.997 8.49156 39.387 7.46511 39.387C6.43866 39.387 5.97209 38.997 5.2789 38.412C4.42574 37.684 3.3593 36.787 1.33306 36.787C0.599875 36.787 0 37.372 0 38.087C0 38.802 0.599875 39.387 1.33306 39.387C2.35951 39.387 2.82608 39.777 3.51927 40.362C4.37242 41.077 5.42554 41.987 7.45178 41.987C9.47803 41.987 10.5445 41.09 11.3976 40.362C12.0908 39.777 12.5574 39.387 13.5838 39.387C14.6236 39.387 15.0769 39.777 15.77 40.362C16.6232 41.09 17.6763 41.987 19.7159 41.987C21.7421 41.987 22.8086 41.09 23.6617 40.362C24.3549 39.777 24.8215 39.387 25.8479 39.387C26.8877 39.387 27.341 39.777 28.0342 40.362C28.8873 41.09 29.9404 41.987 31.98 41.987H31.9933C34.0062 41.987 35.0727 41.09 35.9125 40.375C36.6057 39.79 37.0723 39.4 38.0987 39.4C39.1252 39.4 39.5918 39.79 40.2849 40.375C41.1381 41.103 42.1912 42 44.2308 42C46.257 42 47.3235 41.103 48.1766 40.375C48.8698 39.79 49.3364 39.4 50.3762 39.4C51.416 39.4 51.8692 39.79 52.5757 40.375C53.4289 41.09 54.482 42 56.5216 42C58.5478 42 59.6142 41.103 60.4674 40.375C61.1606 39.79 61.6272 39.4 62.6669 39.4C63.4001 39.4 64 38.815 64 38.1C64 37.385 63.4001 36.8 62.6669 36.8C60.6407 36.8 59.5743 37.697 58.7211 38.425C58.0279 39.01 57.5613 39.4 56.5216 39.4C55.4818 39.4 55.0285 39.01 54.322 38.425C53.4689 37.71 52.4157 36.8 50.3762 36.8C48.3499 36.8 47.2835 37.697 46.4303 38.425C45.7371 39.01 45.2706 39.4 44.2308 39.4C43.191 39.4 42.7378 39.01 42.0446 38.425C41.1914 37.697 40.1383 36.8 38.0987 36.8C37.4589 36.8 36.939 36.891 36.4724 37.034L40.6582 31.6H62.6536C63.3868 31.6 63.9867 31.015 63.9867 30.3C63.9867 29.585 63.3868 29 62.6536 29H39.9917C39.965 29 39.9383 29.013 39.8984 29.013C39.805 29.013 39.7251 29.039 39.6317 29.065C39.5518 29.091 39.4718 29.104 39.3918 29.143C39.3251 29.182 39.2585 29.221 39.1918 29.273C39.1119 29.325 39.0452 29.377 38.9919 29.455C38.9652 29.481 38.9386 29.494 38.9252 29.52L31.9933 38.529L25.0614 29.52C25.0481 29.494 25.0081 29.481 24.9948 29.455C24.9281 29.39 24.8615 29.338 24.7948 29.273C24.7282 29.221 24.6615 29.169 24.5949 29.143C24.5282 29.104 24.4482 29.091 24.3683 29.065C24.2749 29.039 24.195 29.013 24.1016 29.013C24.075 29.013 24.0483 29 24.0083 29H1.33306C0.599875 29 0 29.585 0 30.3C0 31.015 0.599875 31.6 1.33306 31.6H23.3285L27.5143 37.047C27.0344 36.904 26.5011 36.8 25.8479 36.8C23.8217 36.787 22.7553 37.684 21.9021 38.412Z" fill="#242424"/>
<path d="M8 46C5.8 46 4 47.8 4 50C4 52.2 5.8 54 8 54C10.2 54 12 52.2 12 50C12 47.8 10.2 46 8 46ZM8 51.3333C7.26667 51.3333 6.66667 50.7333 6.66667 50C6.66667 49.2667 7.26667 48.6667 8 48.6667C8.73333 48.6667 9.33333 49.2667 9.33333 50C9.33333 50.7333 8.73333 51.3333 8 51.3333Z" fill="#242424"/>
<path d="M20 60C22.2 60 24 58.2 24 56C24 53.8 22.2 52 20 52C17.8 52 16 53.8 16 56C16 58.2 17.8 60 20 60ZM20 54.6667C20.7333 54.6667 21.3333 55.2667 21.3333 56C21.3333 56.7333 20.7333 57.3333 20 57.3333C19.2667 57.3333 18.6667 56.7333 18.6667 56C18.6667 55.2667 19.2667 54.6667 20 54.6667Z" fill="#242424"/>
<path d="M32 45C29.8 45 28 46.8 28 49C28 51.2 29.8 53 32 53C34.2 53 36 51.2 36 49C36 46.8 34.2 45 32 45ZM32 50.3333C31.2667 50.3333 30.6667 49.7333 30.6667 49C30.6667 48.2667 31.2667 47.6667 32 47.6667C32.7333 47.6667 33.3333 48.2667 33.3333 49C33.3333 49.7333 32.7333 50.3333 32 50.3333Z" fill="#242424"/>
<path d="M40 61C42.2 61 44 59.2 44 57C44 54.8 42.2 53 40 53C37.8 53 36 54.8 36 57C36 59.2 37.8 61 40 61ZM40 55.6667C40.7333 55.6667 41.3333 56.2667 41.3333 57C41.3333 57.7333 40.7333 58.3333 40 58.3333C39.2667 58.3333 38.6667 57.7333 38.6667 57C38.6667 56.2667 39.2667 55.6667 40 55.6667Z" fill="#242424"/>
<path d="M50 46C47.8 46 46 47.8 46 50C46 52.2 47.8 54 50 54C52.2 54 54 52.2 54 50C54 47.8 52.2133 46 50 46ZM50 51.3333C49.2667 51.3333 48.6667 50.7333 48.6667 50C48.6667 49.2667 49.2667 48.6667 50 48.6667C50.7333 48.6667 51.3333 49.2667 51.3333 50C51.3333 50.7333 50.7467 51.3333 50 51.3333Z" fill="#242424"/>
<path d="M58 62C60.2 62 62 60.2 62 58C62 55.8 60.2 54 58 54C55.8 54 54 55.8 54 58C54 60.2 55.8 62 58 62ZM58 56.6667C58.7333 56.6667 59.3333 57.2667 59.3333 58C59.3333 58.7333 58.7333 59.3333 58 59.3333C57.2667 59.3333 56.6667 58.7333 56.6667 58C56.6667 57.2667 57.2667 56.6667 58 56.6667Z" fill="#242424"/>
<path d="M37.1965 24.0312C36.8185 24.636 37.001 25.421 37.6137 25.807C37.8223 25.9357 38.07 26 38.3046 26C38.7348 26 39.165 25.7812 39.4127 25.3952C39.4518 25.3437 42.8543 20.0422 47.8212 19.5661C48.5382 19.5018 49.0597 18.8713 48.9945 18.1635C48.9293 17.4558 48.3036 16.9411 47.5735 17.0054C41.303 17.6102 37.366 23.7739 37.1965 24.0312Z" fill="#242424"/>
<path d="M16.1788 19.5753C21.1457 20.0507 24.5612 25.3447 24.5873 25.3961C24.835 25.7816 25.2652 26 25.6954 26C25.93 26 26.1647 25.9358 26.3863 25.8073C26.999 25.4346 27.1815 24.638 26.8035 24.034C26.634 23.7771 22.6839 17.6093 16.4265 17.0054C15.7095 16.9412 15.0707 17.4552 15.0055 18.1619C14.9403 18.8686 15.4618 19.4982 16.1788 19.5753Z" fill="#242424"/>
<path d="M32.216 23.9863C32.2693 23.9863 32.3093 24 32.3492 24C33.0287 24 33.6015 23.4777 33.6681 22.7629C33.6814 22.6392 35.0403 10.0341 42.4475 4.49451C43.047 4.05464 43.1802 3.18864 42.7406 2.57008C42.3143 1.95151 41.475 1.81405 40.8755 2.26766C32.4958 8.54956 31.0703 21.9106 31.0037 22.4879C30.9504 23.244 31.4833 23.9175 32.216 23.9863Z" fill="#242424"/>
</svg>
