<svg width="42" height="29" viewBox="0 0 42 29" fill="none" xmlns="http://www.w3.org/2000/svg">
<rect x="1.0354" y="0.5" width="39.7283" height="28" rx="2" fill="white" stroke="#D9D9D9"/>
<path fill-rule="evenodd" clip-rule="evenodd" d="M21.279 21.2015C19.7249 22.5361 17.709 23.3417 15.5063 23.3417C10.5912 23.3417 6.60669 19.3307 6.60669 14.3828C6.60669 9.43488 10.5912 5.42383 15.5063 5.42383C17.7091 5.42383 19.7249 6.22947 21.279 7.56403C22.833 6.22949 24.8489 5.42385 27.0517 5.42385C31.9668 5.42385 35.9513 9.43491 35.9513 14.3828C35.9513 19.3307 31.9668 23.3417 27.0517 23.3417C24.8489 23.3417 22.833 22.5361 21.279 21.2015Z" fill="#ED0006"/>
<path fill-rule="evenodd" clip-rule="evenodd" d="M21.2791 21.2015C23.1926 19.5583 24.4059 17.1132 24.4059 14.3828C24.4059 11.6524 23.1926 9.20723 21.2791 7.56399C22.8331 6.22946 24.849 5.42383 27.0517 5.42383C31.9668 5.42383 35.9513 9.43488 35.9513 14.3828C35.9513 19.3307 31.9668 23.3417 27.0517 23.3417C24.849 23.3417 22.8331 22.5361 21.2791 21.2015Z" fill="#F9A000"/>
<path fill-rule="evenodd" clip-rule="evenodd" d="M21.2789 21.2019C23.1924 19.5587 24.4058 17.1136 24.4058 14.3832C24.4058 11.6528 23.1924 9.20769 21.2789 7.56445C19.3654 9.20769 18.1521 11.6528 18.1521 14.3832C18.1521 17.1136 19.3654 19.5587 21.2789 21.2019Z" fill="#FF5E00"/>
</svg>
