<svg width="41" height="29" viewBox="0 0 41 29" fill="none" xmlns="http://www.w3.org/2000/svg">
<rect x="0.771729" y="0.5" width="39.7283" height="28" rx="2" fill="white" stroke="#D9D9D9"/>
<path fill-rule="evenodd" clip-rule="evenodd" d="M11.959 18.416H10.1226C9.99689 18.416 9.89001 18.5095 9.87041 18.6364L9.12766 23.4566C9.1129 23.5517 9.18486 23.6374 9.27912 23.6374H10.1559C10.2815 23.6374 10.3884 23.5439 10.408 23.4167L10.6083 22.1167C10.6277 21.9894 10.7348 21.896 10.8602 21.896H11.4416C12.6513 21.896 13.3494 21.2968 13.5319 20.1095C13.614 19.59 13.5353 19.1818 13.2976 18.8959C13.0367 18.5821 12.5736 18.416 11.959 18.416ZM12.1709 20.1765C12.0705 20.851 11.567 20.851 11.0801 20.851H10.803L10.9974 19.5913C11.009 19.5152 11.0734 19.4591 11.1486 19.4591H11.2756C11.6073 19.4591 11.9201 19.4591 12.0818 19.6526C12.1781 19.7681 12.2077 19.9395 12.1709 20.1765ZM17.4486 20.1549H16.5692C16.4943 20.1549 16.4295 20.211 16.418 20.2872L16.3791 20.5389L16.3175 20.4477C16.1272 20.1648 15.7027 20.0703 15.2789 20.0703C14.307 20.0703 13.4771 20.8237 13.3154 21.8805C13.2314 22.4076 13.3508 22.9117 13.643 23.2632C13.911 23.5864 14.2945 23.7211 14.7507 23.7211C15.5337 23.7211 15.968 23.2057 15.968 23.2057L15.9287 23.4559C15.9139 23.5516 15.9859 23.6373 16.0796 23.6373H16.8718C16.9978 23.6373 17.104 23.5438 17.1239 23.4166L17.5992 20.3357C17.6143 20.241 17.5426 20.1549 17.4486 20.1549ZM16.2227 21.9068C16.1379 22.4211 15.7391 22.7663 15.2306 22.7663C14.9752 22.7663 14.771 22.6825 14.6401 22.5236C14.5101 22.3659 14.4606 22.1413 14.502 21.8912C14.5813 21.3813 14.9868 21.0249 15.4876 21.0249C15.7372 21.0249 15.9403 21.1097 16.074 21.27C16.2079 21.4319 16.2611 21.6578 16.2227 21.9068ZM21.2486 20.1547H22.1324C22.2561 20.1547 22.3283 20.2968 22.258 20.4007L19.3187 24.7434C19.2711 24.8137 19.1927 24.8556 19.1089 24.8556H18.2263C18.102 24.8556 18.0294 24.7123 18.1014 24.6082L19.0166 23.2859L18.0432 20.3619C18.0096 20.2603 18.0829 20.1547 18.1885 20.1547H19.0569C19.1697 20.1547 19.2693 20.2306 19.3018 20.3411L19.8184 22.107L21.0373 20.2693C21.085 20.1976 21.1643 20.1547 21.2486 20.1547Z" fill="#3D2B7D"/>
<path fill-rule="evenodd" clip-rule="evenodd" d="M30.8303 23.4558L31.584 18.5476C31.5955 18.4714 31.66 18.4153 31.7349 18.415H32.5834C32.6771 18.415 32.7491 18.501 32.7343 18.5962L31.991 23.416C31.9717 23.5432 31.8648 23.6367 31.7389 23.6367H30.9811C30.8874 23.6367 30.8155 23.551 30.8303 23.4558ZM25.0582 18.4153H23.2214C23.096 18.4153 22.9892 18.5088 22.9695 18.6357L22.2268 23.4558C22.212 23.551 22.2839 23.6367 22.3778 23.6367H23.3202C23.4078 23.6367 23.4828 23.5713 23.4964 23.4823L23.7072 22.116C23.7266 21.9887 23.8337 21.8953 23.9591 21.8953H24.5401C25.7501 21.8953 26.4481 21.2961 26.6307 20.1087C26.7131 19.5893 26.6339 19.1811 26.3963 18.8952C26.1355 18.5814 25.6728 18.4153 25.0582 18.4153ZM25.2701 20.1758C25.1699 20.8503 24.6664 20.8503 24.1793 20.8503H23.9024L24.0971 19.5906C24.1087 19.5145 24.1726 19.4584 24.248 19.4584H24.375C24.7064 19.4584 25.0196 19.4584 25.1811 19.6519C25.2775 19.7674 25.3069 19.9388 25.2701 20.1758ZM30.5473 20.1542H29.6685C29.5929 20.1542 29.5288 20.2102 29.5175 20.2864L29.4786 20.5382L29.4169 20.447C29.2265 20.1641 28.8022 20.0696 28.3785 20.0696C27.4066 20.0696 26.5769 20.8229 26.4152 21.8798C26.3314 22.4069 26.4504 22.9109 26.7425 23.2625C27.0111 23.5857 27.394 23.7204 27.8502 23.7204C28.6332 23.7204 29.0674 23.205 29.0674 23.205L29.0283 23.4552C29.0135 23.5509 29.0854 23.6366 29.1798 23.6366H29.9716C30.097 23.6366 30.2038 23.5431 30.2235 23.4159L30.699 20.335C30.7136 20.2403 30.6416 20.1542 30.5473 20.1542ZM29.3215 21.9061C29.2372 22.4204 28.8379 22.7656 28.3293 22.7656C28.0744 22.7656 27.8699 22.6817 27.7388 22.5229C27.6088 22.3652 27.5599 22.1405 27.6008 21.8905C27.6805 21.3806 28.0855 21.0242 28.5863 21.0242C28.836 21.0242 29.039 21.109 29.1728 21.2693C29.3073 21.4312 29.3604 21.6571 29.3215 21.9061Z" fill="#179BD7"/>
<path d="M18.7552 16.6912L18.981 15.2234L18.4781 15.2114H16.0767L17.7456 4.38014C17.7507 4.34743 17.7676 4.31695 17.7922 4.2953C17.8168 4.27365 17.8483 4.26172 17.8811 4.26172H21.9304C23.2747 4.26172 24.2023 4.54804 24.6867 5.11318C24.9138 5.3783 25.0584 5.65534 25.1284 5.96022C25.2017 6.28014 25.2031 6.66234 25.1313 7.1285L25.1261 7.16253V7.46121L25.3533 7.5929C25.5445 7.69673 25.6964 7.81559 25.813 7.95168C26.0073 8.17836 26.1329 8.46645 26.186 8.808C26.2408 9.15928 26.2227 9.57728 26.1329 10.0505C26.0293 10.5949 25.8618 11.069 25.6356 11.457C25.4275 11.8144 25.1624 12.1108 24.8478 12.3407C24.5473 12.5589 24.1903 12.7247 23.7867 12.8308C23.3955 12.9349 22.9496 12.9876 22.4605 12.9876H22.1453C21.9201 12.9876 21.7011 13.0706 21.5294 13.2196C21.3571 13.3716 21.243 13.5792 21.2081 13.8063L21.1844 13.9385L20.7855 16.5255L20.7674 16.6205C20.7626 16.6506 20.7544 16.6656 20.7424 16.6758C20.7316 16.685 20.716 16.6912 20.7009 16.6912H18.7552Z" fill="#3D2B7D"/>
<path d="M25.5685 7.19727C25.5564 7.27635 25.5426 7.35721 25.5271 7.44028C24.993 10.2465 23.1662 11.216 20.8328 11.216H19.6448C19.3595 11.216 19.119 11.4281 19.0745 11.7161L18.4663 15.6646L18.294 16.7838C18.2651 16.973 18.4076 17.1435 18.594 17.1435H20.7012C20.9507 17.1435 21.1626 16.9579 21.2019 16.7061L21.2226 16.5965L21.6194 14.0195L21.6449 13.8782C21.6837 13.6255 21.896 13.4399 22.1456 13.4399H22.4607C24.5021 13.4399 26.1003 12.5915 26.5675 10.1365C26.7626 9.11095 26.6615 8.25464 26.1452 7.65238C25.989 7.47077 25.7951 7.3201 25.5685 7.19727Z" fill="#179BD7"/>
<path d="M25.0096 6.96962C24.9281 6.94531 24.8438 6.92322 24.7574 6.90334C24.6707 6.8839 24.5817 6.86667 24.4903 6.85165C24.1699 6.79862 23.819 6.77344 23.4429 6.77344H20.2692C20.191 6.77344 20.1168 6.79155 20.0503 6.82425C19.9039 6.89627 19.7952 7.03811 19.7689 7.21176L19.0936 11.5888L19.0742 11.7165C19.1187 11.4284 19.3592 11.2163 19.6445 11.2163H20.8325C23.1658 11.2163 24.9928 10.2464 25.5268 7.44064C25.5427 7.35757 25.5561 7.27672 25.5681 7.19763C25.4331 7.12427 25.2867 7.06153 25.1291 7.00806C25.0903 6.9948 25.0502 6.982 25.0096 6.96962Z" fill="#222D65"/>
<path d="M19.7689 7.21144C19.7952 7.03779 19.9041 6.89595 20.0504 6.82437C20.1173 6.79167 20.1911 6.77356 20.2692 6.77356H23.4431C23.8191 6.77356 24.17 6.79874 24.4903 6.85177C24.5819 6.86679 24.6708 6.88402 24.7576 6.90346C24.8439 6.92335 24.9281 6.94544 25.0097 6.96974C25.0502 6.98211 25.0904 6.99492 25.1296 7.00774C25.2872 7.0612 25.4336 7.12439 25.5687 7.1973C25.7276 6.16026 25.5674 5.45417 25.0197 4.81479C24.4157 4.11092 23.3256 3.80957 21.9309 3.80957H17.8815C17.5966 3.80957 17.3536 4.02165 17.3095 4.31019L15.623 15.2528C15.5897 15.4693 15.7528 15.6647 15.9661 15.6647H18.4661L19.0937 11.5885L19.7689 7.21144Z" fill="#3D2B7D"/>
</svg>
