<svg width="28" height="28" viewBox="0 0 28 28" fill="none" xmlns="http://www.w3.org/2000/svg">
<path d="M18.4443 9.55556C18.4443 10.7343 17.9761 11.8648 17.1425 12.6982C16.3091 13.5318 15.1786 14 13.9999 14C12.8211 14 11.6906 13.5318 10.8571 12.6982C10.0237 11.8648 9.5554 10.7343 9.5554 9.55556M4.70342 8.89042L3.92564 18.2238C3.75855 20.2288 3.67501 21.2313 4.01393 22.0047C4.31171 22.6841 4.82765 23.2449 5.48004 23.598C6.22259 24 7.22858 24 9.24055 24H18.7592C20.7711 24 21.7771 24 22.5196 23.598C23.1721 23.2449 23.688 22.6841 23.9857 22.0047C24.3246 21.2313 24.2411 20.2288 24.0741 18.2238L23.2963 8.89042C23.1525 7.16528 23.0806 6.3027 22.6986 5.64984C22.3622 5.07493 21.8612 4.614 21.2604 4.3265C20.5781 4 19.7125 4 17.9814 4H10.0183C8.2872 4 7.42164 4 6.7393 4.32649C6.13844 4.614 5.63751 5.07493 5.30109 5.64984C4.91907 6.3027 4.84718 7.16528 4.70342 8.89042Z" stroke="#242424" stroke-width="2" stroke-linecap="round" stroke-linejoin="round"/>
</svg>
