<svg width="50" height="50" viewBox="0 0 50 50" fill="none" xmlns="http://www.w3.org/2000/svg">
<path d="M29.707 42.9688H48.5352C49.3443 42.9688 50 42.313 50 41.5039V22.6757C50 21.8666 49.3443 21.2109 48.5352 21.2109H40.5861V8.55446C40.5861 7.74574 39.9303 7.08961 39.1212 7.08961H34.4139C33.7833 7.08961 33.2237 7.49321 33.0246 8.09135L28.3176 22.2126C28.2677 22.3618 28.2421 22.5182 28.2421 22.6757V41.5039C28.2421 42.313 28.8979 42.9688 29.707 42.9688Z" fill="#A27B5C"/>
<path d="M1.46477 42.9688H20.293C21.1021 42.9688 21.7578 42.313 21.7578 41.5039V22.6757C21.7578 21.8666 21.1021 21.2109 20.293 21.2109H12.3435V8.55446C12.3435 7.74574 11.6878 7.08961 10.8787 7.08961H6.17172C5.54115 7.08961 4.98154 7.49321 4.78203 8.09135L0.0750732 22.2126C0.0254822 22.3618 -7.62939e-05 22.5182 -7.62939e-05 22.6757V41.5039C-7.62939e-05 42.313 0.65567 42.9688 1.46477 42.9688Z" fill="#A27B5C"/>
</svg>
