<svg width="64" height="64" viewBox="0 0 64 64" fill="none" xmlns="http://www.w3.org/2000/svg">
<path d="M58.2693 35.999C58.2659 33.5902 58.0913 31.1847 57.7467 28.8007L57.7468 28.8007L57.7455 28.7935C57.6617 28.3332 57.6914 27.8594 57.8321 27.4132C57.9723 26.9684 58.2185 26.5643 58.5496 26.2358C59.2228 25.6261 59.7186 24.8455 59.9842 23.9768C60.2503 23.1067 60.2755 22.1807 60.0573 21.2973L60.0568 21.2957C59.8391 20.4453 59.4051 19.6657 58.7971 19.0326C58.1891 18.3994 57.4277 17.9343 56.5868 17.6823C55.746 17.4303 54.8542 17.4001 53.9982 17.5945C53.1429 17.7888 52.3523 18.2008 51.703 18.7906C51.3832 19.0693 50.9991 19.2642 50.5854 19.3579C50.1709 19.4518 49.7397 19.4411 49.3304 19.3269L49.3304 19.3267L49.3216 19.3247C43.6427 18.0127 37.828 17.3803 31.9998 17.4407C26.1716 17.3804 20.357 18.0127 14.6779 19.3241L14.6779 19.3239L14.6691 19.3264C14.259 19.441 13.8269 19.4516 13.4117 19.3571C12.9971 19.2628 12.6125 19.0666 12.2927 18.7863C11.6432 18.1979 10.8529 17.7871 9.99815 17.5937C9.14285 17.4001 8.25206 17.4308 7.41208 17.6827C6.5721 17.9345 5.81142 18.3991 5.20375 19.0314C4.59608 19.6636 4.16202 20.4421 3.94363 21.2914L3.94362 21.2914L3.9432 21.2931C3.72421 22.177 3.749 23.1037 4.01492 23.9747C4.2804 24.8441 4.77629 25.6255 5.44993 26.2358C5.78091 26.5642 6.02713 26.968 6.16734 27.4127C6.30798 27.8587 6.33772 28.3323 6.25397 28.7925L6.25385 28.7925L6.25283 28.7994C5.5567 33.5742 5.5567 38.4247 6.25283 43.1995L6.2527 43.1995L6.25397 43.2065C6.33779 43.6667 6.30811 44.1405 6.16749 44.5867C6.02729 45.0315 5.78103 45.4356 5.44996 45.7641C4.95769 46.2118 4.55858 46.7522 4.27552 47.3544C3.99183 47.958 3.83031 48.6117 3.80026 49.2779C3.7702 49.9441 3.87221 50.6097 4.1004 51.2363C4.32859 51.8629 4.67846 52.4383 5.12988 52.9291C5.58129 53.42 6.12534 53.8168 6.73069 54.0966C7.33605 54.3764 7.99077 54.5337 8.65716 54.5594C9.32355 54.5852 9.98846 54.4789 10.6136 54.2467C11.2377 54.0149 11.8099 53.6621 12.2973 53.2086C12.6171 52.9305 13.0008 52.7359 13.4142 52.6423C13.8287 52.5484 14.2599 52.559 14.6693 52.6731L14.6692 52.6733L14.6779 52.6753C20.3575 53.9874 26.173 54.6198 32.0018 54.5592L32.0121 54.5591L32.0224 54.558C32.2626 54.5307 32.5551 54.5433 32.8807 54.5575L32.8818 54.5576C33.1992 54.5715 33.5444 54.5866 33.8623 54.5563C34.1792 54.5261 34.4964 54.4488 34.7433 54.2565C34.9993 54.0572 35.1533 53.7555 35.1798 53.3357L35.1809 53.318L35.1789 53.3004C35.131 52.8798 34.9668 52.5837 34.7069 52.3938C34.4556 52.2102 34.1409 52.1456 33.8293 52.127C33.5427 52.1099 33.2337 52.1309 32.9452 52.1505C32.9196 52.1523 32.8941 52.154 32.8688 52.1557C32.5505 52.177 32.2641 52.1921 32.0256 52.161L32.0116 52.1592L31.9976 52.1593C26.3614 52.2195 20.738 51.6099 15.2456 50.3434C14.4517 50.133 13.6179 50.1233 12.8193 50.3154C12.0196 50.5077 11.2804 50.8962 10.6685 51.4458L10.6685 51.4458L10.6658 51.4482C10.4095 51.687 10.1085 51.8726 9.78014 51.9946C9.45178 52.1166 9.10255 52.1724 8.75254 52.1589C8.40253 52.1454 8.05864 52.0628 7.74065 51.9159C7.42267 51.769 7.13687 51.5607 6.8997 51.3029C6.66252 51.0452 6.47866 50.7431 6.35867 50.414C6.23869 50.0849 6.18495 49.7353 6.20056 49.3854C6.21617 49.0355 6.30082 48.6921 6.44963 48.375C6.59844 48.0579 6.80848 47.7734 7.06766 47.5378L7.0677 47.5378L7.07132 47.5343C7.69273 46.9403 8.15946 46.2034 8.43085 45.3877C8.70202 44.5727 8.76995 43.7038 8.62873 42.8565C7.96398 38.3093 7.96398 33.6896 8.62873 29.1424C8.76987 28.2953 8.7019 27.4266 8.43073 26.6117C8.15934 25.7962 7.69264 25.0595 7.07131 24.4656L7.07136 24.4656L7.06767 24.4622C6.80867 24.2267 6.59875 23.9424 6.44997 23.6255C6.30119 23.3086 6.21648 22.9655 6.20072 22.6157C6.18495 22.266 6.23844 21.9167 6.3581 21.5877C6.47777 21.2587 6.66125 20.9566 6.89802 20.6988C7.13478 20.4409 7.42016 20.2324 7.73776 20.0852C8.05536 19.9379 8.39891 19.8549 8.7487 19.8408C9.09848 19.8268 9.44759 19.882 9.77598 20.0032C10.1044 20.1245 10.4056 20.3095 10.6622 20.5475L10.6622 20.5475L10.6643 20.5494C11.2761 21.1007 12.0158 21.4906 12.8164 21.6838C13.6159 21.8767 14.4508 21.8673 15.2457 21.6565C20.7381 20.39 26.3614 19.7804 31.9976 19.8406L31.9976 19.8406L32.0019 19.8406C37.6381 19.7804 43.2615 20.39 48.7538 21.6565C49.5478 21.8667 50.3815 21.8762 51.1801 21.6842C51.9798 21.4919 52.7189 21.1035 53.3309 20.554L53.331 20.554L53.3338 20.5514C53.59 20.3123 53.8911 20.1263 54.2196 20.004C54.548 19.8817 54.8975 19.8257 55.2477 19.839C55.5979 19.8524 55.9421 19.9349 56.2603 20.0818C56.5785 20.2288 56.8645 20.4372 57.1018 20.6951C57.3391 20.953 57.5231 21.2554 57.6431 21.5847C57.763 21.914 57.8167 22.2638 57.8009 22.614C57.7851 22.9641 57.7002 23.3076 57.5511 23.6248C57.4019 23.942 57.1915 24.2266 56.9319 24.4621L56.9319 24.462L56.9281 24.4656C56.3067 25.0596 55.84 25.7966 55.5686 26.6122C55.2974 27.4272 55.2295 28.2961 55.3707 29.1433C55.7024 31.434 55.8691 33.7455 55.8693 36.06H55.8691L55.8696 36.0697C55.8848 36.3839 56.0227 36.6796 56.2537 36.8931C56.4847 37.1067 56.7903 37.221 57.1047 37.2116C57.4192 37.2022 57.7174 37.0697 57.9351 36.8427C58.1526 36.616 58.2726 36.3131 58.2693 35.999ZM58.2693 35.999C58.2693 35.9992 58.2693 35.9995 58.2693 35.9997L58.0693 36L58.2693 35.9977C58.2693 35.9981 58.2693 35.9985 58.2693 35.999Z" fill="#242424" stroke="#242424" stroke-width="0.4"/>
<path d="M47.9996 35.8H47.9994C45.5865 35.8 43.2279 36.5155 41.2216 37.856C39.2154 39.1965 37.6518 41.1018 36.7284 43.331C35.805 45.5602 35.5634 48.0132 36.0342 50.3797C36.5049 52.7462 37.6668 54.9199 39.373 56.6261C41.0791 58.3322 43.2529 59.4941 45.6194 59.9649C47.9859 60.4356 50.4388 60.194 52.668 59.2706C54.8972 58.3473 56.8025 56.7836 58.143 54.7774C59.4835 52.7712 60.199 50.4125 60.199 47.9996V47.9994C60.1954 44.765 58.909 41.6642 56.6219 39.3771C54.3349 37.0901 51.234 35.8036 47.9996 35.8ZM47.9992 57.7993C46.0611 57.7993 44.1665 57.2246 42.555 56.1478C40.9434 55.071 39.6874 53.5405 38.9457 51.7498C38.2039 49.9592 38.0099 47.9888 38.388 46.0878C38.7661 44.1869 39.6995 42.4407 41.07 41.0702C42.4405 39.6997 44.1866 38.7664 46.0876 38.3882C47.9885 38.0101 49.9589 38.2042 51.7496 38.9459C53.5402 39.6876 55.0708 40.9437 56.1476 42.5552C57.2243 44.1667 57.7991 46.0613 57.7991 47.9994C57.7961 50.5976 56.7627 53.0885 54.9255 54.9257C53.0883 56.7629 50.5974 57.7964 47.9992 57.7993Z" fill="#242424" stroke="#242424" stroke-width="0.4"/>
<path d="M52.1514 43.8184L52.1508 43.819L46.3324 49.6369L43.8486 47.1531C43.8485 47.153 43.8484 47.1528 43.8483 47.1527C43.7371 47.0406 43.6049 46.9515 43.4593 46.8906C43.3135 46.8296 43.1571 46.798 42.999 46.7977C42.841 46.7973 42.6844 46.8281 42.5383 46.8884C42.3922 46.9488 42.2595 47.0373 42.1478 47.1491C42.036 47.2608 41.9474 47.3936 41.8871 47.5396C41.8268 47.6857 41.796 47.8423 41.7963 48.0003C41.7967 48.1584 41.8283 48.3148 41.8893 48.4606C41.9502 48.6062 42.0393 48.7384 42.1514 48.8496C42.1515 48.8497 42.1516 48.8498 42.1518 48.8499L45.484 52.1821C45.5954 52.2936 45.7276 52.382 45.8732 52.4423C46.0188 52.5026 46.1748 52.5337 46.3324 52.5337C46.49 52.5337 46.6461 52.5026 46.7916 52.4423C46.9372 52.382 47.0695 52.2936 47.1808 52.1822C47.1809 52.1822 47.1809 52.1821 47.1809 52.1821L53.8476 45.5159L53.8483 45.5152C54.0716 45.2898 54.1965 44.9852 54.1958 44.6679C54.195 44.3507 54.0687 44.0467 53.8443 43.8223C53.62 43.598 53.316 43.4716 52.9987 43.4709C52.6815 43.4702 52.3768 43.5951 52.1514 43.8184Z" fill="#242424" stroke="#242424" stroke-width="0.4"/>
<path d="M35.4298 16.2004L35.4283 16.2004L31.9997 16.2004C31.9997 16.2004 31.9997 16.2004 31.9997 16.2004C31.7623 16.2004 31.5303 16.13 31.333 15.9982C31.1357 15.8663 30.9819 15.6789 30.891 15.4596C30.8002 15.2404 30.7765 14.9991 30.8228 14.7663C30.8691 14.5335 30.9834 14.3197 31.1513 14.1519L32.5315 12.7717H32.0004H31.9997V12.5717L35.4298 16.2004ZM35.4298 16.2004C35.7465 16.1979 36.0493 16.0704 36.2724 15.8456C36.4954 15.6209 36.6205 15.3171 36.6205 15.0004C36.6205 14.6838 36.4954 14.3799 36.2724 14.1552C36.0493 13.9304 35.7465 13.8029 35.4298 13.8004V13.8004M35.4298 16.2004V13.8004M35.4298 13.8004H35.4283M35.4298 13.8004H35.4283M35.4283 13.8004H34.8965M35.4283 13.8004H34.8965M34.8965 13.8004L36.2767 12.4202C36.4446 12.2524 36.5589 12.0386 36.6052 11.8059C36.6515 11.5731 36.6278 11.3318 36.5369 11.1125C36.4461 10.8933 36.2923 10.7059 36.095 10.574C35.8976 10.4422 35.6656 10.3718 35.4283 10.3718C35.4283 10.3718 35.4283 10.3718 35.4283 10.3718H32.0004H31.9997V10.5718L34.8965 13.8004Z" fill="#242424" stroke="#242424" stroke-width="0.4"/>
<path d="M44.8582 14.629L44.8567 14.629L39.7133 14.629C39.7133 14.629 39.7133 14.629 39.7133 14.629C39.476 14.629 39.244 14.5587 39.0466 14.4268C38.8493 14.295 38.6955 14.1076 38.6047 13.8883C38.5138 13.669 38.4901 13.4277 38.5364 13.195C38.5827 12.9622 38.697 12.7484 38.8649 12.5806C38.8649 12.5806 38.8649 12.5806 38.8649 12.5806L41.9598 9.4861H39.714H39.7133V9.2861L44.8582 14.629ZM44.8582 14.629C45.1749 14.6266 45.4777 14.4991 45.7008 14.2743C45.9238 14.0495 46.0489 13.7457 46.0489 13.4291C46.0489 13.1124 45.9238 12.8086 45.7008 12.5838C45.4777 12.3591 45.1749 12.2316 44.8582 12.2291V12.2291M44.8582 14.629V12.2291M44.8582 12.2291H44.8567M44.8582 12.2291H44.8567M44.8567 12.2291H42.6102M44.8567 12.2291H42.6102M42.6102 12.2291L45.7051 9.1346C45.873 8.96681 45.9873 8.753 46.0336 8.52023C46.0799 8.28745 46.0562 8.04617 45.9653 7.8269C45.8745 7.60763 45.7207 7.42022 45.5234 7.28836C45.326 7.15652 45.094 7.08615 44.8567 7.08616C44.8567 7.08616 44.8567 7.08616 44.8567 7.08616H39.714H39.7133V7.28616L42.6102 12.2291Z" fill="#242424" stroke="#242424" stroke-width="0.4"/>
<path d="M56.0005 13.0577L55.999 13.0577L49.1418 13.0577C49.1418 13.0577 49.1418 13.0577 49.1418 13.0577C48.9044 13.0577 48.6724 12.9873 48.4751 12.8555C48.2778 12.7236 48.124 12.5362 48.0331 12.317C47.9423 12.0977 47.9186 11.8564 47.9649 11.6236C48.0112 11.3909 48.1255 11.1771 48.2934 11.0093C48.2934 11.0093 48.2934 11.0093 48.2934 11.0093L53.1021 6.20095H49.1425H49.1418V6.00095L56.0005 13.0577ZM56.0005 13.0577C56.3172 13.0552 56.62 12.9277 56.843 12.703C57.0661 12.4782 57.1912 12.1744 57.1912 11.8577C57.1912 11.5411 57.0661 11.2373 56.843 11.0125C56.62 10.7877 56.3172 10.6602 56.0005 10.6578V10.6578M56.0005 13.0577V10.6578M56.0005 10.6578H55.999M56.0005 10.6578H55.999M55.999 10.6578H52.0386M55.999 10.6578H52.0386M52.0386 10.6578L56.8474 5.84945C57.0152 5.68165 57.1296 5.46784 57.1759 5.23507C57.2222 5.0023 57.1985 4.76102 57.1076 4.54175C57.0168 4.32247 56.863 4.13506 56.6657 4.00321C56.4683 3.87136 56.2363 3.80099 55.999 3.80101C55.999 3.80101 55.999 3.80101 55.999 3.80101H49.1425H49.1418V4.00101L52.0386 10.6578Z" fill="#242424" stroke="#242424" stroke-width="0.4"/>
</svg>
