<?xml version="1.0" encoding="utf-8"?>
<!-- Generator: Adobe Illustrator 25.4.1, SVG Export Plug-In . SVG Version: 6.00 Build 0)  -->
<svg version="1.1" id="Layer_1" xmlns="http://www.w3.org/2000/svg" xmlns:xlink="http://www.w3.org/1999/xlink" x="0px" y="0px"
	 viewBox="0 0 64 64" style="enable-background:new 0 0 64 64;" xml:space="preserve">
<g>
	<path d="M15.9,21.6c0-2-0.1-4.1-0.1-6.3c0-1,0.6-1.6,1.6-1.5c2.1,0,4.2,0.1,6.3,0.1c1.2-1.3,2.5-2.8,3.9-4.3c0.9-0.9,1.9-1,2.8,0
		c1.4,1.5,2.7,3,4,4.3c2.1,0,4.2-0.1,6.3-0.1c1,0,1.5,0.6,1.5,1.6c0,2.1-0.1,4.2-0.1,6.3c1.3,1.1,2.8,2.4,4.2,3.8
		c1.2,1.3,1.1,1.6,0.1,3c-4.5,5.8-11.5,6.2-16.6,1.2c-0.2-0.2-0.3-0.4-0.6-0.6c-0.5,0.4-0.9,0.8-1.3,1.2C22.6,35,15.6,33.9,11.3,28
		c-0.5-0.7-0.5-1.4,0.1-2C12.9,24.5,14.5,23,15.9,21.6z M29,25.5c5.7-4.2,4.5-11-0.1-13.9C24,15.5,24,21.6,29,25.5z M44.6,26.9
		c-1.1-0.9-2.1-1.7-3.1-2.5c-0.6-0.5-1-0.4-1.4,0.2c-1.5,2-3.6,3.1-6,3.6c-0.6,0.1-1.3,0.2-2,0.3C35.4,32.1,41.1,31.5,44.6,26.9z
		 M13.5,26.8c3.6,5.2,9.9,4.9,12.4,1.7c-3.3-0.3-6.1-1.5-8.2-4.1c-0.1-0.2-0.8-0.2-1,0C15.6,25.1,14.6,25.9,13.5,26.8z M18.2,15.9
		c-1.1,5.1,2.4,10.3,7.6,10c-2.3-2.7-3.4-5.7-2.8-9.5C21.4,16.3,19.8,16.1,18.2,15.9z M39.9,15.9c-1.7,0.2-3.2,0.4-4.8,0.6
		c0.4,4.1,0.1,4.9-2.8,9.5C36.9,26.1,40.8,21.9,39.9,15.9z"/>
	<path d="M53.2,39.2c-1.2,3.5-2.3,6.7-3.4,9.8c-0.4,1-1.3,1.3-1.8,0.7c-0.3-0.3-0.4-1.1-0.3-1.5c1.5-3.2,2.4-6.5,2.8-10
		c0.1-1,0.7-1.4,1.7-1.4c1,0,2,0,3.3,0c-1.3-1.9-2.4-3.6-3.6-5.2c-1.1-1.5-1.5-3.1-1.4-5c0.5-8.2-2.7-14.6-9.6-19
		c-7-4.4-14.3-4.5-21.7-0.8c-0.5,0.2-0.9,0.7-1.4,0.7c-0.4,0.1-1.2-0.1-1.4-0.4c-0.2-0.3,0-1,0.2-1.4c0.1-0.3,0.6-0.4,0.9-0.6
		c14.1-8.2,32.1,0,35,16.1c0.4,2,0.1,4,0.3,6.1c0.1,0.8,0.2,1.8,0.6,2.4c1.2,2,2.6,3.8,4,5.7c0.6,0.8,0.8,1.6,0.4,2.6
		c-0.5,0.9-1.3,1.2-2.3,1.2C54.6,39.2,53.7,39.2,53.2,39.2z"/>
	<path d="M11.9,60.9c0.4-0.8,0.8-1.4,1.1-2c0.7-1.4,1.6-2.8,2.1-4.3c1-2.7,0.4-5.4-0.9-7.9c-2.1-4-4.2-7.9-6.1-11.9
		C4,26,5.9,15.4,12.8,8.8c0.1-0.1,0.3-0.3,0.5-0.4c0.6-0.5,1.2-0.7,1.7-0.1c0.6,0.6,0.3,1.2-0.2,1.9c-1.5,1.9-3.3,3.8-4.4,6
		c-3.1,6.2-2.8,12.5,0.3,18.6c1.9,3.8,3.9,7.5,5.8,11.3c1.8,3.7,1.9,7.4,0.1,11.1c-0.7,1.5-1.5,2.9-2.4,4.2
		c-0.2,0.4-0.9,0.7-1.4,0.6C12.5,61.9,12.2,61.3,11.9,60.9z"/>
	<path d="M38.7,56.1c0,1.5,0,2.9,0,4.3c0,0.9-0.2,1.6-1.2,1.6c-0.9,0-1.2-0.7-1.2-1.5c0-1.4,0-2.9,0-4.3c0.1-1.6,0.9-2.4,2.5-2.4
		c0.6,0,1.2-0.1,1.7,0c2,0.2,3.6-0.3,4.7-2c0.4-0.7,1.2-0.9,1.8-0.3c0.7,0.6,0.4,1.2,0,1.9c-1.5,1.9-3.2,3.1-5.7,2.9
		C40.6,56.1,39.7,56.1,38.7,56.1z"/>
</g>
</svg>
