<svg width="41" height="29" viewBox="0 0 41 29" fill="none" xmlns="http://www.w3.org/2000/svg">
<rect x="0.5" y="0.5" width="39.7283" height="28" rx="2" fill="white" stroke="#D9D9D9"/>
<path fill-rule="evenodd" clip-rule="evenodd" d="M12.44 19.6451H9.97266L8.12246 12.3155C8.03464 11.9783 7.84817 11.6802 7.57389 11.5397C6.88938 11.1867 6.13511 10.9057 5.31226 10.764V10.4818H9.28696C9.83552 10.4818 10.2469 10.9057 10.3155 11.398L11.2755 16.6851L13.7417 10.4818H16.1404L12.44 19.6451ZM17.5118 19.6451H15.1816L17.1004 10.4818H19.4306L17.5118 19.6451ZM22.4453 13.0203C22.5139 12.5268 22.9253 12.2446 23.4053 12.2446C24.1596 12.1738 24.9813 12.3155 25.667 12.6673L26.0784 10.6944C25.3927 10.4122 24.6384 10.2705 23.9539 10.2705C21.6923 10.2705 20.0466 11.5397 20.0466 13.3013C20.0466 14.6414 21.2123 15.345 22.0351 15.7689C22.9253 16.1916 23.2682 16.4738 23.1996 16.8965C23.1996 17.5305 22.5139 17.8127 21.8294 17.8127C21.0066 17.8127 20.1837 17.6013 19.4306 17.2483L19.0192 19.2224C19.8421 19.5742 20.7323 19.7159 21.5551 19.7159C24.091 19.7855 25.667 18.5175 25.667 16.6143C25.667 14.2175 22.4453 14.077 22.4453 13.0203ZM33.8221 19.6451L31.9719 10.4818H29.9845C29.5731 10.4818 29.1617 10.764 29.0245 11.1867L25.5984 19.6451H27.9972L28.476 18.3062H31.4233L31.6976 19.6451H33.8221ZM30.3273 12.9495L31.0119 16.4029H29.0931L30.3273 12.9495Z" fill="#172B85"/>
</svg>
